<svg preserveAspectRatio="xMidYMid meet" data-bbox="20.63 20.63 158.74 158.74" viewBox="20.63 20.63 158.74 158.74" height="200" width="200" xmlns="http://www.w3.org/2000/svg" data-type="color" role="presentation" aria-hidden="true" aria-label=""><defs><style>#comp-kroxoqm3 svg [data-color="1"] {fill: #FFFFFF;}
#comp-kroxoqm3 svg [data-color="2"] {fill: #000000;}</style></defs>
    <g>
        <path fill="#7E55F6" d="M91.746 85h-30l17.5-13.5 11.5-9.5 1 23z" data-color="1"></path>
        <path d="M139.685 60.315H91.167l-30.852 24.11v55.261h79.37V60.315zm-49.759 4.118v18.752H65.93l23.996-18.752zm47.279 72.772h-74.41V85.634l.155-.121v.152h29.456v-22.87h44.799v74.41zM20.63 20.63v158.74h158.74V20.63H20.63zm156.26 156.26H23.11V23.11h153.78v153.78zm-70.745-68.374H76.19v-2.48h29.955v2.48zm17.667 0h-6.913v-2.48h6.913v2.48zM76.19 119.098h47.623v2.48H76.19v-2.48z" fill="#1D1D1B" data-color="2"></path>
    </g>
</svg>