<svg preserveAspectRatio="xMidYMid meet" data-bbox="20.63 20.63 158.74 158.74" viewBox="20.63 20.63 158.74 158.74" height="200" width="200" xmlns="http://www.w3.org/2000/svg" data-type="color" role="presentation" aria-hidden="true" aria-label=""><defs><style>#comp-krp1ki4w svg [data-color="1"] {fill: #FFFFFF;}
#comp-krp1ki4w svg [data-color="2"] {fill: #000000;}</style></defs>
    <g>
        <path fill="#7E55F6" d="M109.086 91v18h-18V91h18z" data-color="1"></path>
        <path d="M62.086 62v76h76V62h-76zm59 59h-42V79h42v42z" fill="#7E55F6" data-color="1"></path>
        <path d="m139.685 63.429 7.594-7.484.049.184 19.133-5.044-.635-2.398-15.266 4.025 6.646-6.55-1.739-1.766-6.338 6.247 3.455-15.006-2.417-.557-4.331 18.809-6.521 6.427h-79v79.37h79.37V63.429zm-76.89 73.776v-74.41h74.002l-15.099 14.882H77.677v44.646h44.646V80.541l14.882-14.668v71.331h-74.41zm46.321-47.126H90.079v19.843h19.843V92.764l9.921-9.779v36.857H80.157V80.157h39.024l-10.065 9.922zm-8.464 11.822 6.789-6.692v12.232H92.559V92.559h14.04l-7.686 7.576 1.739 1.766zM20.63 20.63v158.74h158.74V20.63H20.63zm156.26 156.26H23.11V23.11h153.78v153.78z" fill="#1D1D1B" data-color="2"></path>
    </g>
</svg>