<?xml version="1.0" encoding="utf-8"?>
<!-- Generator: Adobe Illustrator 27.5.0, SVG Export Plug-In . SVG Version: 6.00 Build 0)  -->
<svg version="1.1" id="Layer_1" xmlns="http://www.w3.org/2000/svg" xmlns:xlink="http://www.w3.org/1999/xlink" x="0px" y="0px"
	 viewBox="0 0 967.5 663.75" style="enable-background:new 0 0 967.5 663.75;" xml:space="preserve">
<style type="text/css">
	.st0{fill:#070707;stroke:#000000;stroke-width:2;stroke-miterlimit:10;}
	.st1{fill:#F5D82C;}
	.st2{fill:#83D09D;}
	.st3{fill:#F50F11;}
	.st4{fill:#073C89;}
	.st5{fill:#008AFC;}
	.st6{fill:#FC0F81;}
	.st7{fill:#8ECD0D;}
	.st8{fill:#FD980D;}
	.st9{fill:#A70F8B;}
</style>
<g>
	<g>
		<g>
			<path class="st0" d="M161,618.64h17.75v3.24H161V618.64z M168.11,620.63h3.53v22.29h-3.53V620.63z"/>
			<path class="st0" d="M190.87,642.05c-1.34-0.74-2.37-1.79-3.1-3.14c-0.73-1.35-1.1-2.92-1.1-4.7v-6.88c0-1.78,0.37-3.35,1.1-4.7
				c0.73-1.35,1.77-2.4,3.1-3.14c1.34-0.74,2.88-1.11,4.64-1.11c1.75,0,3.3,0.37,4.64,1.11c1.34,0.74,2.37,1.79,3.1,3.14
				s1.1,2.92,1.1,4.7v6.88c0,1.78-0.37,3.35-1.1,4.7c-0.73,1.35-1.77,2.4-3.1,3.14s-2.88,1.11-4.64,1.11
				C193.75,643.16,192.2,642.79,190.87,642.05z M198.24,639.13c0.79-0.45,1.4-1.09,1.83-1.92c0.43-0.83,0.65-1.79,0.65-2.88v-7.11
				c0-1.09-0.22-2.05-0.65-2.88c-0.43-0.83-1.04-1.47-1.83-1.92c-0.79-0.45-1.7-0.68-2.74-0.68c-1.04,0-1.95,0.22-2.74,0.68
				s-1.4,1.09-1.83,1.92s-0.65,1.79-0.65,2.88v7.11c0,1.09,0.22,2.05,0.65,2.88s1.04,1.47,1.83,1.92s1.7,0.68,2.74,0.68
				C196.54,639.81,197.45,639.58,198.24,639.13z"/>
			<path class="st0" d="M219.43,642.1c-1.32-0.71-2.33-1.74-3.02-3.09c-0.69-1.35-1.04-2.98-1.04-4.88v-15.49h3.53v15.61
				c0,1.77,0.46,3.14,1.38,4.11c0.92,0.97,2.23,1.45,3.91,1.45c1.7,0,3.01-0.48,3.94-1.45c0.93-0.97,1.39-2.34,1.39-4.11v-15.61
				h3.53v15.49c0,1.9-0.35,3.53-1.04,4.88c-0.69,1.35-1.7,2.38-3.03,3.09s-2.92,1.06-4.79,1.06
				C222.34,643.16,220.75,642.81,219.43,642.1z"/>
			<path class="st0" d="M244.6,618.62h3.53v24.29h-3.53V618.62z M246.14,629.41h8.58c0.67,0,1.26-0.16,1.78-0.47s0.92-0.75,1.2-1.33
				c0.28-0.57,0.42-1.23,0.42-1.98c0-0.75-0.14-1.41-0.42-1.98s-0.68-1.02-1.19-1.33s-1.11-0.47-1.79-0.47h-8.58v-3.24h8.44
				c1.45,0,2.73,0.29,3.83,0.87c1.1,0.58,1.95,1.4,2.56,2.46c0.61,1.06,0.91,2.29,0.91,3.68c0,1.39-0.31,2.62-0.92,3.68
				c-0.61,1.06-1.47,1.88-2.57,2.46c-1.1,0.58-2.37,0.87-3.81,0.87h-8.44V629.41z M252.99,631.9l3.51-0.77l6.44,11.79h-4.19
				L252.99,631.9z"/>
			<path class="st0" d="M343.26,632.6v3.24h-11.62v-3.24H343.26z"/>
			<path class="st0" d="M409.79,618.64h17.75v3.24h-17.75V618.64z M416.9,620.63h3.53v22.29h-3.53V620.63z"/>
			<path class="st0" d="M435.97,618.62h3.53v24.29h-3.53V618.62z M437.51,629.41h8.58c0.67,0,1.26-0.16,1.78-0.47
				s0.92-0.75,1.2-1.33c0.28-0.57,0.42-1.23,0.42-1.98c0-0.75-0.14-1.41-0.42-1.98s-0.68-1.02-1.19-1.33s-1.11-0.47-1.79-0.47h-8.58
				v-3.24h8.44c1.45,0,2.73,0.29,3.83,0.87c1.1,0.58,1.95,1.4,2.56,2.46c0.61,1.06,0.91,2.29,0.91,3.68c0,1.39-0.31,2.62-0.92,3.68
				c-0.61,1.06-1.47,1.88-2.57,2.46c-1.1,0.58-2.37,0.87-3.81,0.87h-8.44V629.41z M444.36,631.9l3.51-0.77l6.44,11.79h-4.19
				L444.36,631.9z"/>
			<path class="st0" d="M464.74,618.64h3.53v24.27h-3.53V618.64z M466.45,618.64h14.44v3.24h-14.44V618.64z M466.45,629.24h12.54
				v3.24h-12.54V629.24z M466.45,639.68h14.44v3.24h-14.44V639.68z"/>
			<path class="st0" d="M491.58,618.64h3.2l12.3,18.76l-0.42,0.43v-19.2h3.49v24.26h-3.23l-12.26-18.48l0.42-0.43v18.92h-3.49
				V618.64z"/>
			<path class="st0" d="M522.05,618.64h3.53v24.27h-3.53V618.64z M524.44,639.68h5.69c1.86,0,3.3-0.46,4.32-1.39
				c1.02-0.93,1.53-2.24,1.53-3.93v-7.14c0-1.69-0.51-3-1.53-3.93c-1.02-0.93-2.46-1.39-4.32-1.39h-5.69v-3.24h5.59
				c2.02,0,3.74,0.34,5.17,1.02c1.43,0.68,2.52,1.67,3.27,2.97c0.75,1.3,1.12,2.87,1.12,4.71v6.88c0,1.84-0.38,3.41-1.12,4.71
				c-0.75,1.3-1.84,2.29-3.28,2.97c-1.44,0.68-3.16,1.02-5.18,1.02h-5.57V639.68z"/>
			<path class="st0" d="M620.86,632.6v3.24h-11.62v-3.24H620.86z"/>
			<path class="st0" d="M687.4,618.64h17.75v3.24H687.4V618.64z M694.5,620.63h3.53v22.29h-3.53V620.63z"/>
			<path class="st0" d="M713.58,618.62h3.53v24.29h-3.53V618.62z M715.12,629.41h8.58c0.67,0,1.26-0.16,1.78-0.47
				c0.52-0.31,0.92-0.75,1.2-1.33c0.28-0.57,0.42-1.23,0.42-1.98c0-0.75-0.14-1.41-0.42-1.98c-0.28-0.57-0.68-1.02-1.19-1.33
				c-0.51-0.31-1.11-0.47-1.79-0.47h-8.58v-3.24h8.44c1.45,0,2.73,0.29,3.83,0.87c1.1,0.58,1.96,1.4,2.56,2.46
				c0.61,1.06,0.91,2.29,0.91,3.68c0,1.39-0.31,2.62-0.92,3.68c-0.61,1.06-1.47,1.88-2.57,2.46c-1.1,0.58-2.37,0.87-3.81,0.87h-8.44
				V629.41z M721.97,631.9l3.51-0.77l6.43,11.79h-4.19L721.97,631.9z"/>
			<path class="st0" d="M749.19,618.64h3.01l9.27,24.27h-3.81l-6.97-19.58l-6.97,19.58h-3.81L749.19,618.64z M744.19,634.35h13.23
				v3.24h-13.23V634.35z"/>
			<path class="st0" d="M770.95,618.64h3.2l12.3,18.76l-0.42,0.43v-19.2h3.49v24.26h-3.23l-12.26-18.48l0.42-0.43v18.92h-3.5V618.64
				z"/>
			<path class="st0" d="M805.54,642.83c-1.08-0.22-2.1-0.56-3.04-1c-0.94-0.45-1.82-1-2.64-1.67l2.2-2.6c0.96,0.8,2.01,1.4,3.17,1.8
				c1.15,0.4,2.4,0.6,3.75,0.6c1.82,0,3.24-0.33,4.24-0.98c1-0.65,1.5-1.57,1.5-2.76v-0.02c0-0.85-0.23-1.52-0.68-2.01
				c-0.46-0.5-1.04-0.86-1.76-1.1s-1.65-0.46-2.79-0.66c-0.03-0.01-0.07-0.02-0.11-0.02c-0.04,0-0.08,0-0.11-0.02l-0.26-0.05
				c-1.68-0.28-3.05-0.59-4.11-0.94c-1.05-0.35-1.96-0.99-2.71-1.92c-0.75-0.93-1.12-2.25-1.12-3.96v-0.02
				c0-1.5,0.35-2.79,1.05-3.85c0.7-1.06,1.72-1.87,3.05-2.43c1.34-0.56,2.95-0.83,4.83-0.83c0.9,0,1.78,0.09,2.66,0.28
				c0.87,0.19,1.73,0.47,2.58,0.84c0.85,0.37,1.68,0.84,2.5,1.41l-2.01,2.7c-0.96-0.68-1.91-1.19-2.86-1.53
				c-0.95-0.34-1.91-0.51-2.86-0.51c-1.72,0-3.05,0.33-4,0.99s-1.43,1.6-1.43,2.81v0.02c0,0.83,0.24,1.49,0.74,1.97
				c0.49,0.48,1.1,0.83,1.83,1.06c0.73,0.23,1.75,0.46,3.05,0.71c0.05,0.01,0.09,0.02,0.13,0.02c0.04,0.01,0.08,0.01,0.13,0.03
				c0.06,0.01,0.12,0.02,0.19,0.03c0.07,0.01,0.13,0.02,0.19,0.03c1.52,0.3,2.79,0.66,3.81,1.07c1.02,0.41,1.87,1.08,2.56,2
				c0.69,0.92,1.03,2.17,1.03,3.76v0.03c0,1.48-0.36,2.75-1.09,3.8s-1.78,1.85-3.16,2.4s-3.04,0.83-4.99,0.83
				C807.77,643.16,806.62,643.05,805.54,642.83z"/>
			<path class="st0" d="M828.9,618.64h3.53v24.27h-3.53V618.64z M830.63,618.64h14.1v3.24h-14.1V618.64z M830.63,629.46h12.2v3.24
				h-12.2V629.46z"/>
			<path class="st0" d="M858.06,642.05c-1.34-0.74-2.37-1.79-3.11-3.14c-0.73-1.35-1.1-2.92-1.1-4.7v-6.88c0-1.78,0.37-3.35,1.1-4.7
				s1.77-2.4,3.11-3.14c1.34-0.74,2.88-1.11,4.64-1.11s3.3,0.37,4.64,1.11c1.34,0.74,2.37,1.79,3.11,3.14s1.1,2.92,1.1,4.7v6.88
				c0,1.78-0.37,3.35-1.1,4.7c-0.73,1.35-1.77,2.4-3.11,3.14s-2.88,1.11-4.64,1.11S859.4,642.79,858.06,642.05z M865.44,639.13
				c0.79-0.45,1.4-1.09,1.83-1.92s0.65-1.79,0.65-2.88v-7.11c0-1.09-0.22-2.05-0.65-2.88s-1.04-1.47-1.83-1.92s-1.7-0.68-2.74-0.68
				s-1.95,0.22-2.74,0.68s-1.4,1.09-1.83,1.92c-0.43,0.83-0.65,1.79-0.65,2.88v7.11c0,1.09,0.22,2.05,0.65,2.88
				c0.43,0.83,1.04,1.47,1.83,1.92s1.7,0.68,2.74,0.68S864.65,639.58,865.44,639.13z"/>
			<path class="st0" d="M882.92,618.62h3.53v24.29h-3.53V618.62z M884.46,629.41h8.58c0.67,0,1.26-0.16,1.78-0.47
				c0.52-0.31,0.92-0.75,1.2-1.33c0.28-0.57,0.42-1.23,0.42-1.98c0-0.75-0.14-1.41-0.42-1.98c-0.28-0.57-0.68-1.02-1.19-1.33
				c-0.51-0.31-1.11-0.47-1.79-0.47h-8.58v-3.24h8.44c1.45,0,2.73,0.29,3.83,0.87c1.1,0.58,1.96,1.4,2.56,2.46
				c0.61,1.06,0.91,2.29,0.91,3.68c0,1.39-0.31,2.62-0.92,3.68c-0.61,1.06-1.47,1.88-2.57,2.46c-1.1,0.58-2.37,0.87-3.81,0.87h-8.44
				V629.41z M891.31,631.9l3.51-0.77l6.43,11.79h-4.19L891.31,631.9z"/>
			<path class="st0" d="M929.76,618.64h3.3v24.27h-3.44v-18.18l0.17,1.07l-6.19,13.74h-2.46l-6.19-13.41l0.17-1.4v18.18h-3.44
				v-24.27h3.3l7.39,16.03L929.76,618.64z"/>
		</g>
	</g>
</g>
<rect x="403.29" y="10.33" class="st1" width="31.74" height="138.16"/>
<rect x="404.23" y="7.53" transform="matrix(6.123234e-17 -1 1 6.123234e-17 343.4862 496.7087)" class="st1" width="31.74" height="138.16"/>
<rect x="403.29" y="148.49" class="st2" width="31.74" height="138.16"/>
<rect x="404.23" y="145.69" transform="matrix(6.123234e-17 -1 1 6.123234e-17 205.3252 634.8698)" class="st2" width="31.74" height="138.16"/>
<rect x="403.29" y="286.65" class="st3" width="31.74" height="138.16"/>
<rect x="268.63" y="140.93" transform="matrix(6.123234e-17 -1 1 6.123234e-17 -68.4333 637.4333)" class="st3" width="31.74" height="424"/>
<polygon class="st3" points="87.12,602.9 57.21,602.9 64.21,336.25 94.12,336.25 "/>
<rect x="58.09" y="470.04" transform="matrix(6.123234e-17 -1 1 6.123234e-17 -462.1053 608.1918)" class="st3" width="29.91" height="130.22"/>
<rect x="541.5" y="472.68" class="st4" width="33" height="130.22"/>
<rect x="544.09" y="470.04" transform="matrix(6.123234e-17 -1 1 6.123234e-17 23.8947 1094.1918)" class="st4" width="29.91" height="130.22"/>
<rect x="541.46" y="10.33" class="st5" width="31.74" height="138.16"/>
<rect x="542.39" y="7.53" transform="matrix(6.123234e-17 -1 1 6.123234e-17 481.6472 634.8698)" class="st5" width="31.74" height="138.16"/>
<rect x="541.46" y="148.49" class="st6" width="31.74" height="138.16"/>
<rect x="542.39" y="145.69" transform="matrix(6.123234e-17 -1 1 6.123234e-17 343.4862 773.0308)" class="st6" width="31.74" height="138.16"/>
<polygon class="st4" points="574.5,478.25 542.46,478.25 541.46,285.65 573.49,285.65 "/>
<rect x="542.39" y="283.85" transform="matrix(6.123234e-17 -1 1 6.123234e-17 205.3252 911.1918)" class="st4" width="31.74" height="138.16"/>
<rect x="679.62" y="10.33" class="st7" width="31.74" height="138.16"/>
<rect x="680.55" y="7.53" transform="matrix(6.123234e-17 -1 1 6.123234e-17 619.8082 773.0308)" class="st7" width="31.74" height="138.16"/>
<rect x="679.62" y="148.49" class="st8" width="31.74" height="138.16"/>
<rect x="680.55" y="145.69" transform="matrix(6.123234e-17 -1 1 6.123234e-17 481.6472 911.1918)" class="st8" width="31.74" height="138.16"/>
<rect x="679.62" y="286.65" class="st9" width="31.74" height="138.16"/>
<rect x="680.55" y="283.85" transform="matrix(6.123234e-17 -1 1 6.123234e-17 343.4862 1049.3528)" class="st9" width="31.74" height="138.16"/>
<g>
	<path d="M270.76,537.86c0,5.76-0.75,11.32-2.25,16.66c-1.5,5.34-3.6,10.34-6.32,15.01c-2.71,4.66-5.99,8.92-9.83,12.76
		c-3.84,3.84-8.08,7.14-12.72,9.88c-4.64,2.74-9.64,4.86-15.01,6.36c-5.37,1.5-10.94,2.25-16.7,2.25c-5.76,0-11.32-0.75-16.66-2.25
		c-5.34-1.5-10.34-3.62-15.01-6.36c-4.66-2.74-8.92-6.03-12.76-9.88c-3.84-3.84-7.14-8.1-9.88-12.76
		c-2.74-4.66-4.86-9.66-6.36-15.01c-1.5-5.34-2.25-10.89-2.25-16.66c0-5.76,0.75-11.33,2.25-16.7c1.5-5.37,3.62-10.37,6.36-15.01
		c2.74-4.63,6.03-8.87,9.88-12.72c3.84-3.84,8.1-7.12,12.76-9.83c4.66-2.71,9.66-4.82,15.01-6.32c5.34-1.5,10.89-2.25,16.66-2.25
		c5.77,0,11.33,0.75,16.7,2.25c5.37,1.5,10.37,3.6,15.01,6.32c4.63,2.71,8.87,5.99,12.72,9.83c3.84,3.84,7.12,8.08,9.83,12.72
		c2.71,4.64,4.82,9.64,6.32,15.01C270.01,526.53,270.76,532.09,270.76,537.86z M246.6,537.86c0-5.31-1.02-10.33-3.05-15.05
		c-2.03-4.72-4.79-8.82-8.27-12.29c-3.48-3.48-7.57-6.23-12.29-8.27c-4.72-2.03-9.74-3.05-15.05-3.05c-5.37,0-10.4,1.02-15.09,3.05
		c-4.69,2.04-8.79,4.79-12.29,8.27c-3.5,3.48-6.27,7.57-8.31,12.29c-2.03,4.72-3.05,9.74-3.05,15.05c0,5.31,1.02,10.3,3.05,14.96
		c2.03,4.66,4.8,8.75,8.31,12.25c3.5,3.5,7.6,6.27,12.29,8.31c4.69,2.03,9.72,3.05,15.09,3.05c5.31,0,10.33-1.02,15.05-3.05
		c4.72-2.04,8.82-4.8,12.29-8.31c3.48-3.5,6.23-7.59,8.27-12.25C245.58,548.16,246.6,543.17,246.6,537.86z"/>
	<path d="M383.43,585.84c-5.65,4.8-11.95,8.49-18.9,11.06c-6.95,2.57-14.19,3.86-21.7,3.86c-5.76,0-11.32-0.75-16.66-2.25
		c-5.34-1.5-10.33-3.62-14.96-6.36c-4.63-2.74-8.87-6.02-12.72-9.83c-3.84-3.81-7.12-8.05-9.83-12.72
		c-2.71-4.66-4.82-9.68-6.32-15.05c-1.5-5.37-2.25-10.94-2.25-16.7c0-5.76,0.75-11.3,2.25-16.62c1.5-5.31,3.6-10.3,6.32-14.96
		c2.71-4.66,5.99-8.9,9.83-12.72c3.84-3.81,8.08-7.08,12.72-9.79c4.63-2.71,9.62-4.82,14.96-6.32c5.34-1.5,10.89-2.25,16.66-2.25
		c7.52,0,14.75,1.29,21.7,3.86c6.95,2.57,13.25,6.26,18.9,11.06l-12.72,21.19c-3.67-3.73-7.91-6.66-12.72-8.77
		c-4.8-2.12-9.86-3.18-15.18-3.18c-5.31,0-10.3,1.02-14.96,3.05s-8.75,4.79-12.25,8.27c-3.5,3.48-6.27,7.54-8.31,12.21
		c-2.03,4.66-3.05,9.65-3.05,14.96c0,5.37,1.02,10.4,3.05,15.09c2.03,4.69,4.8,8.79,8.31,12.29c3.5,3.5,7.59,6.27,12.25,8.31
		c4.66,2.03,9.65,3.05,14.96,3.05c3.05,0,6.02-0.37,8.9-1.1c2.88-0.73,5.62-1.75,8.22-3.05v-34.59h23.48V585.84z"/>
	<path d="M485.5,598.13h-83.33V476.57h83.33v24.33h-59v24.33h39.93v24.33H426.5v24.25h59V598.13z"/>
</g>
<g>
	<path d="M656.01,597.78h-23.72v-118.5h23.72v47.43h47.35v-47.43h23.72v118.5h-23.72v-47.35h-47.35V597.78z"/>
	<path d="M830.28,597.78h-81.23v-118.5h81.23V503h-57.51v23.72h38.92v23.72h-38.92v23.63h57.51V597.78z"/>
	<path d="M870.61,597.78h-23.72v-118.5h47.43c4.35,0,8.54,0.57,12.56,1.69c4.02,1.13,7.78,2.73,11.28,4.79
		c3.5,2.07,6.69,4.54,9.59,7.44c2.89,2.89,5.37,6.1,7.44,9.63c2.06,3.53,3.66,7.3,4.79,11.32c1.13,4.02,1.69,8.21,1.69,12.56
		c0,4.08-0.51,8.04-1.53,11.9c-1.02,3.86-2.48,7.52-4.38,10.99s-4.23,6.67-6.98,9.59c-2.76,2.92-5.84,5.45-9.26,7.6l13.14,30.99
		h-25.2l-10.33-23.88l-26.53,0.17V597.78z M870.61,503v47.43h23.72c3.25,0,6.31-0.62,9.17-1.86s5.37-2.93,7.52-5.08
		s3.84-4.67,5.08-7.56c1.24-2.89,1.86-5.96,1.86-9.21c0-3.25-0.62-6.32-1.86-9.21c-1.24-2.89-2.93-5.41-5.08-7.56
		c-2.15-2.15-4.65-3.84-7.52-5.08c-2.87-1.24-5.92-1.86-9.17-1.86H870.61z"/>
</g>
<path d="M926.5,423.57c10.85,0,19.68,8.83,19.68,19.68s-8.83,19.68-19.68,19.68s-19.68-8.83-19.68-19.68S915.65,423.57,926.5,423.57
	 M926.5,421.25c-12.15,0-22,9.85-22,22s9.85,22,22,22s22-9.85,22-22S938.65,421.25,926.5,421.25L926.5,421.25z"/>
<g>
	<path d="M912.95,436.79c-1.79,0-2.79,2.15-3.16,3.34h-0.2l0.18-3.74h14.55l0.22,3.74h-0.2c-0.36-1.19-1.43-3.34-3.2-3.34h-2.71
		v11.76c0.06,1.04,0.82,1.57,1.87,1.57v0.2h-6.71v-0.2c1.13,0,1.89-0.52,1.89-1.57l-0.14-11.76H912.95z"/>
	<path d="M942.93,450.13v0.2h-6.73v-0.2c1.11,0,1.87-0.52,1.87-1.57v-11.05l-4.86,12.82h-0.4l-5.37-12.94v11.17
		c0.06,1.04,0.8,1.57,1.87,1.57v0.2h-4.14v-0.2c1.11,0,1.87-0.52,1.87-1.57v-10.39c0-1.07-0.76-1.57-1.87-1.57v-0.2h5.1
		c0.1,0.24,4.08,9.79,4.08,9.81l3.72-9.79v-0.02h4.86v0.2c-1.05,0-1.87,0.42-1.87,1.39v10.57
		C941.12,449.59,941.87,450.13,942.93,450.13z"/>
</g>
</svg>
